HIERARCHY
ROOT RootJoint
{
    OFFSET   0.000000   0.000000   0.000000
    CHANNELS 6 Xposition Yposition Zposition Xrotation Yrotation Zrotation
    JOINT pelvis_lowerback
    {
        OFFSET   0.000000   0.093605   0.000000
        CHANNELS 3 Xrotation Yrotation Zrotation
        JOINT lowerback_torso
        {
            OFFSET   0.000000   0.100000   0.000000
            CHANNELS 3 Xrotation Yrotation Zrotation
            JOINT torso_head
            {
                OFFSET   0.000000   0.282350   0.000000
                CHANNELS 3 Xrotation Yrotation Zrotation
                End Site
                {
                    OFFSET   0.000000   0.192650   0.000000
                }
            }
            JOINT rTorso_Clavicle
            {
                OFFSET  -0.001000   0.157500   0.000000
                CHANNELS 3 Xrotation Yrotation Zrotation
                JOINT rShoulder
                {
                    OFFSET  -0.117647   0.000000   0.000000
                    CHANNELS 3 Xrotation Yrotation Zrotation
                    JOINT rElbow
                    {
                        OFFSET  -0.245000   0.000000   0.000000
                        CHANNELS 3 Xrotation Yrotation Zrotation
                        JOINT rWrist
                        {
                            OFFSET  -0.240000   0.000000   0.000000
                            CHANNELS 3 Xrotation Yrotation Zrotation
                            End Site
                            {
                                OFFSET  -0.116353  -0.002500   0.000000
                            }
                        }
                    }
                }
            }
            JOINT lTorso_Clavicle
            {
                OFFSET   0.001000   0.157500   0.000000
                CHANNELS 3 Xrotation Yrotation Zrotation
                JOINT lShoulder
                {
                    OFFSET   0.117647   0.000000   0.000000
                    CHANNELS 3 Xrotation Yrotation Zrotation
                    JOINT lElbow
                    {
                        OFFSET   0.245000   0.000000   0.000000
                        CHANNELS 3 Xrotation Yrotation Zrotation
                        JOINT lWrist
                        {
                            OFFSET   0.240000   0.000000   0.000000
                            CHANNELS 3 Xrotation Yrotation Zrotation
                            End Site
                            {
                                OFFSET   0.116353  -0.002500   0.000000
                            }
                        }
                    }
                }
            }
        }
    }
    JOINT rHip
    {
        OFFSET  -0.100000  -0.051395   0.000000
        CHANNELS 3 Xrotation Yrotation Zrotation
        JOINT rKnee
        {
            OFFSET   0.000000  -0.410000   0.000000
            CHANNELS 3 Xrotation Yrotation Zrotation
            JOINT rAnkle
            {
                OFFSET   0.000000  -0.390000   0.000000
                CHANNELS 3 Xrotation Yrotation Zrotation
                JOINT rToeJoint
                {
                    OFFSET   0.000000  -0.050000   0.130000
                    CHANNELS 3 Xrotation Yrotation Zrotation
                    End Site
                    {
                        OFFSET  -0.010000   0.002000   0.060000
                    }
                }
            }
        }
    }
    JOINT lHip
    {
        OFFSET   0.100000  -0.051395   0.000000
        CHANNELS 3 Xrotation Yrotation Zrotation
        JOINT lKnee
        {
            OFFSET   0.000000  -0.410000   0.000000
            CHANNELS 3 Xrotation Yrotation Zrotation
            JOINT lAnkle
            {
                OFFSET   0.000000  -0.390000   0.000000
                CHANNELS 3 Xrotation Yrotation Zrotation
                JOINT lToeJoint
                {
                    OFFSET   0.000000  -0.050000   0.130000
                    CHANNELS 3 Xrotation Yrotation Zrotation
                    End Site
                    {
                        OFFSET   0.010000   0.002000   0.060000
                    }
                }
            }
        }
    }
}
MOTION
Frames: 10
Frame Time:   0.008333
 -2.396747   0.880778   4.245024  -7.907859 -21.586178  -3.668228   3.532742 -14.546870   5.530546  -0.647633 -13.006767   8.612154  -0.154258   8.680643   0.452506  -6.739800 -11.253545  -0.563476 -33.468928   0.658438  13.335838 -179.887888  66.825162 179.855019   3.997370   7.670597 -19.171887   3.813736 -18.579113   5.998175  15.426133 -24.404466 -25.213646   0.000772 -31.536437  -0.003282   7.969017  -6.592006   1.216649 -23.795977  10.993728   0.840390  27.667853   0.001123   0.003456  -3.674259   9.575387  10.687483   1.033297  -0.000163   0.001760  25.177438   9.170563  -4.723661  13.234378  -0.002687   0.000401 -14.236966  19.694860   8.498187 -25.783265   0.005761   0.000496
 -2.401152   0.878517   4.249689  -7.606081 -21.608073  -3.612367   3.356529 -14.524105   5.635093  -0.799385 -13.079944   8.750574  -0.435690   8.719850   0.472553  -7.066865 -11.159171  -0.517599 -34.701599   1.155603  12.800042 -179.889130  65.813820 179.856936   4.116833   7.626058 -19.603427   3.933747 -18.292152   5.945495  16.149808 -23.583621 -25.059688   0.000662 -31.555742  -0.002580   8.060725  -6.736669   1.622426 -23.858455  11.070411   0.925125  28.052308   0.000838   0.003149  -4.190583   9.676983  10.703570   1.060670  -0.000145   0.001455  25.103547   9.202298  -4.478809  13.650893  -0.002943   0.000609 -14.704398  19.693381   8.363676 -26.067860   0.004917   0.000561
 -2.405701   0.876028   4.254327  -7.277555 -21.657629  -3.536201   3.174988 -14.474780   5.710062  -0.955772 -13.115938   8.882220  -0.707253   8.750706   0.498659  -7.402426 -11.079045  -0.478829 -35.877402   1.637602  12.305047 -179.892816  64.838193 179.861403   4.286422   7.725032 -20.184271   4.084617 -17.956059   5.885837  16.852360 -22.769440 -24.952088   0.000518 -31.554964  -0.002072   8.149831  -6.837354   1.960080 -23.909463  11.127765   1.022070  28.412723   0.000491   0.002774  -4.677630   9.770321  10.720848   1.053339  -0.000110   0.001154  25.031981   9.239040  -4.249860  14.032226  -0.003118   0.000721 -15.242245  19.696453   8.242046 -26.202216   0.004074   0.000520
 -2.410343   0.873386   4.258972  -6.929957 -21.700711  -3.430749   2.985923 -14.407871   5.756953  -1.111494 -13.123474   8.993902  -0.962580   8.778468   0.524738  -7.722884 -11.014993  -0.445180 -36.977822   2.093384  11.846476 -179.899139  63.921151 179.868902   4.470450   7.871207 -20.807773   4.247851 -17.601877   5.818455  17.520639 -21.984652 -24.880320   0.000355 -31.542610  -0.001689   8.234072  -6.879816   2.228737 -23.929908  11.178165   1.105519  28.751022   0.000161   0.002461  -5.132411   9.857199  10.737858   1.046162  -0.000080   0.000915  24.966125   9.280297  -4.041204  14.385335  -0.003184   0.000860 -15.803083  19.706419   8.132305 -26.262567   0.003331   0.000433
 -2.415053   0.870637   4.263637  -6.564220 -21.729421  -3.297838   2.792574 -14.326294   5.782217  -1.264774 -13.109231   9.087191  -1.202183   8.804304   0.548908  -8.024072 -10.962057  -0.413489 -38.003510   2.523340  11.423024 -179.907063  63.063253 179.878413   4.655465   8.027318 -21.427774   4.414975 -17.243928   5.744595  18.151323 -21.236892 -24.837056   0.000189 -31.524022  -0.001391   8.313411  -6.883948   2.446494 -23.921349  11.225102   1.174648  29.070854  -0.000137   0.002226  -5.556674   9.938168  10.754320   1.041270  -0.000057   0.000727  24.902413   9.318126  -3.846928  14.712906  -0.003175   0.001008 -16.368526  19.713925   8.037252 -26.280146   0.002688   0.000349
 -2.419816   0.867815   4.268334  -6.181550 -21.746583  -3.139654   2.598558 -14.231260   5.791102  -1.414013 -13.076414   9.165058  -1.426856   8.828618   0.570873  -8.305440 -10.915564  -0.382045 -38.958247   2.929343  11.033421 -179.915730  62.261568 179.888994   4.837523   8.183285 -22.027832   4.581547 -16.889667   5.665533  18.744318 -20.528787 -24.816877   0.000032 -31.502075  -0.001156   8.388258  -6.864680   2.625922 -23.887600  11.269714   1.231918  29.374203  -0.000403   0.002049  -5.952386  10.013715  10.770185   1.038653  -0.000042   0.000579  24.837922   9.348557  -3.664943  15.019743  -0.003123   0.001138 -16.920396  19.714773   7.952833 -26.288428   0.002162   0.000281
 -2.424172   0.866531   4.272113  -5.916204 -21.852830  -3.329207   2.697053 -14.049623   6.082363  -1.424271 -12.992386   9.381115  -1.652106   8.853455   0.598149  -8.554035 -10.829085  -0.245750 -39.834473   3.300712  10.719430 -179.926147  61.512176 179.902706   5.039500   8.385359 -22.603206   4.732668 -16.603331   5.500729  19.278792 -19.890819 -24.830711  -0.000186 -31.474481  -0.001030   8.452781  -6.768888   2.845626 -24.471325  11.134043   1.809302  30.353850  -0.002310   0.001872  -5.935636  10.052391  10.891552   1.117386  -0.000366   0.000408  24.732215   9.406159  -3.210132  15.345323  -0.003304   0.000746 -17.166097  19.768617   7.867728 -26.271780   0.001705   0.000194
 -2.428565   0.865717   4.275745  -5.709772 -21.972265  -3.489939   2.758028 -13.822110   6.225316  -1.331940 -12.922183   9.622692  -1.947182   8.828956   0.621736  -8.885998 -10.700141   0.076744 -40.960948   3.776535  10.429512 -179.929820  60.776167 179.909551   5.179648   8.464242 -22.851142   4.794008 -16.231825   5.217488  19.719414 -19.071642 -24.971181   0.001065 -31.625828  -0.000703   8.453615  -6.792255   3.058234 -24.917602  10.942701   2.310767  31.288958  -0.003970   0.001077  -6.465838   9.909101  10.885484   1.181627  -0.000452   0.000188  24.645136   9.471682  -2.752350  15.752663  -0.003809   0.000483 -17.605248  19.574187   7.697033 -24.468968   0.001405  -0.005562
 -2.432926   0.865159   4.279245  -5.514487 -22.098159  -3.609670   2.790386 -13.559563   6.296868  -1.256145 -12.803943   9.812285  -2.222551   8.801633   0.642949  -9.215490 -10.571642   0.383786 -42.029445   4.229316  10.174682 -179.933610  60.081795 179.916274   5.323822   8.552283 -23.192810   4.876247 -15.831640   4.929945  20.147592 -18.285414 -25.141224   0.002039 -31.763793  -0.000550   8.448491  -6.852512   3.230509 -25.269954  10.749139   2.747543  32.084897  -0.005030   0.000353  -7.012766   9.770077  10.877869   1.197461  -0.000399   0.000115  24.533527   9.509751  -2.318374  16.107525  -0.004120   0.000257 -17.999656  19.364563   7.524198 -22.599804   0.001079  -0.010716
 -2.437239   0.864758   4.282612  -5.330647 -22.208358  -3.698427   2.806163 -13.275557   6.314425  -1.197169 -12.651368   9.952408  -2.480748   8.776074   0.660480  -9.528721 -10.447214   0.662109 -43.030227   4.660864   9.943074 -179.937919  59.432459 179.923223   5.465629   8.641357 -23.558487   4.970914 -15.422402   4.653112  20.561495 -17.535075 -25.322389   0.002714 -31.885853  -0.000497   8.441965  -6.895098   3.349394 -25.552164  10.562068   3.134485  32.782354  -0.005641  -0.000110  -7.546926   9.638789  10.868452   1.206491  -0.000340   0.000073  24.391753   9.537352  -1.896567  16.418825  -0.004241   0.000145 -18.365145  19.162421   7.358608 -20.838083   0.000418  -0.013999
